<?xml version="1.0" encoding="UTF-8"?>
<svg width="70px" height="70px" viewBox="0 0 70 70" version="1.1" xmlns="http://www.w3.org/2000/svg" xmlns:xlink="http://www.w3.org/1999/xlink">
    <!-- Generator: Sketch 43.1 (39012) - http://www.bohemiancoding.com/sketch -->
    <title>Group-6</title>
    <desc>Created with Sketch.</desc>
    <defs></defs>
    <g id="Page-1" stroke="none" stroke-width="1" fill="none" fill-rule="evenodd">
        <g id="contact-—-копия">
            <g id="Group-6">
                <circle id="Oval" fill="#FFFFFF" fill-rule="nonzero" cx="35" cy="35" r="35"></circle>
                <g id="Group-5" transform="translate(14.000000, 4.000000)">
                    <g id="blue-team" fill-rule="nonzero">
                        <g id="Group">
                            <path d="M21.4136604,61.267932 C20.3333333,61.267932 19.3189033,60.7483849 18.6859067,59.8695971 L1.43434344,35.9346986 C1.01875902,35.3581752 0.795093794,34.6648019 0.795093794,33.9530802 L0.795093794,14.3194139 C0.795093794,13.1118049 1.43674844,11.9959374 2.47859548,11.3918914 L19.7296777,1.39254079 C20.7715248,0.788977689 22.0553152,0.788977689 23.0971621,1.39254079 L40.3487253,11.3918914 C41.3905723,11.9959374 42.0322271,13.1118049 42.0322271,14.3194139 L42.0322271,33.953563 C42.0322271,34.6652847 41.8085619,35.3581752 41.3929775,35.9351814 L24.1414141,59.8691143 C23.5084175,60.7483849 22.4939874,61.267932 21.4136604,61.267932 Z M7.52910052,32.8589411 L21.4136604,52.1217782 L35.2982203,32.8589411 L35.2982203,16.2706127 L21.4136604,8.22294371 L7.52910052,16.2706127 L7.52910052,32.8589411 Z" id="Shape" fill="#1768AC"></path>
                            <path d="M40.3487253,15.7375458 L23.0971621,5.73819514 C22.0553152,5.13463203 20.7715248,5.13463203 19.7296777,5.73819514 L2.47859548,15.7375458 C1.43674844,16.3415917 0.795093794,17.4574592 0.795093794,18.6650683 L0.795093794,33.953563 C0.795093794,34.6652847 1.01875902,35.3581752 1.43434344,35.9351814 L18.6859067,59.8695971 C19.3189033,60.7483849 20.3338143,61.267932 21.4136604,61.267932 C22.4939874,61.267932 23.5084175,60.7483849 24.1414141,59.8695971 L41.3929775,35.9351814 C41.8085619,35.358658 42.0322271,34.6652847 42.0322271,33.953563 L42.0322271,18.6650683 C42.0322271,17.4574592 41.3905723,16.3415917 40.3487253,15.7375458 Z M35.2982203,20.6162671 L35.2982203,32.8594239 L35.2982203,37.2050783 L21.4136604,56.4679154 L7.52910052,37.2045955 L7.52910052,32.8589411 L7.52910052,20.6162671 L7.52910052,16.2706127 L21.4136604,8.22294371 L35.2982203,16.2706127 L35.2982203,20.6162671 Z" id="Shape" fill="#0D334F"></path>
                            <path d="M21.4136604,61.9922079 C20.1053391,61.9922079 18.8672439,61.3572593 18.1010101,60.2935398 L0.849927851,36.3591243 C0.341991342,35.6546453 0.0740740736,34.8226939 0.0740740736,33.953563 L0.0740740736,14.3194139 C0.0740740736,12.8583084 0.857142857,11.4957043 2.11784511,10.7651515 L19.3694084,0.765318015 C20.6305916,0.0342823843 22.1972102,0.0342823843 23.4579126,0.765318015 L40.7094758,10.7646687 C41.9701779,11.4957043 42.7537277,12.8578255 42.7537277,14.3189311 L42.7537277,33.9530802 C42.7537277,34.8226939 42.4853294,35.6541625 41.977874,36.3586413 L24.7263108,60.2935398 C23.9600771,61.3572593 22.7219818,61.9922079 21.4136604,61.9922079 Z M21.4136604,1.66535131 C20.956229,1.66535131 20.4987975,1.78364968 20.0904281,2.01976357 L2.83934584,12.0191142 C2.02356903,12.4918248 1.51659452,13.3739927 1.51659452,14.3194139 L1.51659452,33.953563 C1.51659452,34.5160838 1.69023569,35.0544622 2.01875903,35.5107559 L19.2703223,59.4451714 C19.7662338,60.1332334 20.5670996,60.5436563 21.4136604,60.5436563 C22.2602212,60.5436563 23.061087,60.1327506 23.5569985,59.4451714 L40.8085619,35.5107559 C41.1370851,35.054945 41.3107264,34.5160838 41.3107264,33.953563 L41.3107264,14.3194139 C41.3107264,13.3739927 40.8037517,12.4923077 39.9879749,12.0191142 L22.7364117,2.01976357 C22.3285234,1.78364968 21.8710918,1.66535131 21.4136604,1.66535131 Z M21.4136604,52.8465369 C21.1822992,52.8465369 20.964887,52.7354811 20.8292448,52.5466867 L6.94468494,33.2833666 C6.85569985,33.1597569 6.80759981,33.0115218 6.80759981,32.8589411 L6.80759981,16.2706127 C6.80759981,16.0118049 6.94516595,15.7727939 7.16835017,15.64339 L21.05291,7.59572095 C21.2760943,7.46631701 21.5512266,7.46631701 21.7744108,7.59572095 L35.6589706,15.64339 C35.882155,15.7727939 36.019721,16.0118049 36.019721,16.2706127 L36.019721,32.8589411 C36.019721,33.011039 35.971621,33.1597569 35.8826359,33.2833666 L21.998076,52.5466867 C21.8624338,52.7349983 21.6450216,52.8465369 21.4136604,52.8465369 Z M8.25060126,32.6247586 L21.4136604,50.8866468 L34.5767195,32.6247586 L34.5767195,16.6887612 L21.4136604,9.05924075 L8.25060126,16.6887612 L8.25060126,32.6247586 Z" id="Shape" fill="#FFFFFF"></path>
                        </g>
                    </g>
                    <g id="VH" transform="translate(12.790476, 28.071429)" font-size="14" font-family="CourierNewPSMT, Courier New" fill="#000000" font-weight="normal">
                        <g id="Group">
                            <text id="VH">
                                <tspan x="0" y="12">VH</tspan>
                            </text>
                        </g>
                    </g>
                    <g id="console" transform="translate(10.000000, 14.285714)" fill-rule="nonzero" fill="#0E3451">
                        <path d="M24.2082565,10.9790502 C24.1479191,9.59520897 23.9065706,8.06095024 23.5445476,6.61694202 C23.1825242,5.23310083 22.7299955,3.93951012 22.186961,2.94675446 C20.0751597,-0.753516579 17.7823469,-0.181929994 15.0370053,0.540074116 C14.1621162,0.750658645 13.22689,0.991326683 12.2614951,1.0815772 L11.9598092,1.0815772 C10.9944144,0.991326683 10.0591881,0.750658645 9.18429901,0.540074116 C6.4389574,-0.151846489 4.14614464,-0.753516579 2.03434339,2.97683797 C1.49130878,3.96959363 1.00861136,5.26318432 0.676756877,6.64702554 C0.314733805,8.09103375 0.0733850931,9.62529248 0.0130479148,11.0091337 C-0.0472892636,12.5433924 0.103553682,13.6564821 0.435408164,14.4386532 C0.767262645,15.1606573 1.24996007,15.6119099 1.88350045,15.7924109 C2.45670365,15.9428284 3.12041259,15.8826614 3.81429015,15.5818264 C4.99086514,15.1004903 6.34845165,14.0776511 7.67586956,12.8442275 C8.61109582,11.9417223 10.360874,11.4904698 12.1106522,11.4904698 C13.8604304,11.4904698 15.6102085,11.9417223 16.5454348,12.8442275 C17.8728527,14.0776511 19.2304392,15.1004903 20.4070143,15.5818264 C21.1008917,15.8525779 21.7646006,15.9428284 22.3378039,15.7924109 C22.9411757,15.6119099 23.4540418,15.1907408 23.7858962,14.4085697 C24.1177508,13.6564821 24.2685935,12.5433924 24.2082565,10.9790502 Z M22.7601641,13.9874006 C22.5791527,14.4085697 22.3378039,14.6492377 22.0361179,14.7394883 C21.7042635,14.8297387 21.2819032,14.7695718 20.7992058,14.5890707 C19.7433053,14.1679017 18.5063931,13.235313 17.2996495,12.0921399 C16.1532431,10.9489667 14.1319477,10.3773801 12.1106522,10.3773801 C10.0893567,10.3773801 8.06806122,10.9489667 6.89148625,12.0319728 C5.65457409,13.175146 4.41766195,14.1378182 3.3919299,14.5289037 C2.90923248,14.7094047 2.48687222,14.7996552 2.15501774,14.6793212 C1.85333186,14.5890707 1.61198314,14.3484027 1.43097161,13.9272336 C1.18962289,13.355647 1.06894853,12.4230584 1.12928571,11.0392172 C1.18962289,9.74562651 1.40080302,8.27153478 1.76282609,6.88769357 C2.09468058,5.59410288 2.51704082,4.39076268 3.02990682,3.48825756 C4.68917924,0.509990612 6.61996894,0.991326683 8.91278172,1.59299677 C9.848008,1.83366481 10.8134028,2.07433284 11.8693035,2.16458336 L11.9296406,2.16458336 L12.2614951,2.16458336 L12.3218323,2.16458336 C13.4079015,2.07433284 14.3732964,1.83366481 15.3085226,1.59299677 C17.6013354,1.02141019 19.5321252,0.509990612 21.1913974,3.48825756 C21.7042635,4.39076268 22.1266238,5.56401936 22.4584783,6.88769357 C22.7903329,8.27153478 23.0316815,9.715543 23.0920187,11.0392172 C23.1523559,12.4230584 23.0316815,13.355647 22.7601641,13.9874006 Z" id="Shape"></path>
                        <path d="M9.33514196,5.11276678 C9.03345607,4.84201526 8.67143301,4.63143073 8.24907276,4.60134722 C8.21890418,4.21026167 8.03789264,3.81917611 7.76637533,3.54842456 L7.73620674,3.51834105 C7.40435225,3.18742252 6.981992,3.00692149 6.49929459,3.00692149 C6.01659717,3.00692149 5.56406832,3.21750601 5.26238243,3.51834105 C4.99086514,3.7890926 4.77968501,4.18017818 4.74951641,4.60134722 C4.32715616,4.63143073 3.9651331,4.81193174 3.66344721,5.08268331 L3.63327861,5.11276678 C3.30142413,5.44368536 3.12041259,5.8648544 3.12041259,6.3461905 C3.12041259,6.82752657 3.33159273,7.27877913 3.63327861,7.57961419 C3.9349645,7.88044923 4.29698758,8.06095024 4.74951641,8.09103375 C4.77968501,8.5122028 4.96069655,8.90328837 5.26238243,9.17403992 C5.59423692,9.50495845 6.01659717,9.68545948 6.49929459,9.68545948 C6.981992,9.68545948 7.43452085,9.47487496 7.73620674,9.17403992 C8.00772405,8.87320486 8.21890418,8.5122028 8.24907276,8.09103375 C8.67143301,8.06095024 9.06362467,7.88044923 9.33514196,7.57961419 C9.66699646,7.24869564 9.848008,6.82752657 9.848008,6.3461905 C9.848008,5.8648544 9.63682786,5.41360184 9.33514196,5.11276678 Z M8.58092724,6.79744306 C8.46025287,6.91777706 8.30940993,6.97794409 8.12839839,6.97794409 L7.70603814,6.97794409 C7.40435225,6.97794409 7.13283496,7.21861212 7.13283496,7.54953068 L7.13283496,7.94061623 C7.13283496,8.12111726 7.07249779,8.27153478 6.95182342,8.39186879 C6.83114906,8.5122028 6.68030611,8.57236982 6.49929459,8.57236982 C6.31828305,8.57236982 6.16744011,8.5122028 6.04676577,8.39186879 C5.92609138,8.27153478 5.86575423,8.12111726 5.86575423,7.94061623 L5.86575423,7.51944716 C5.86575423,7.21861212 5.62440549,6.94786057 5.29255103,6.94786057 L4.87019078,6.94786057 C4.68917924,6.94786057 4.53833629,6.88769357 4.41766195,6.76735954 C4.32715616,6.67710905 4.23665041,6.52669153 4.23665041,6.3461905 C4.23665041,6.16568946 4.29698758,6.01527192 4.41766195,5.89493792 C4.41766195,5.89493792 4.41766195,5.89493792 4.44783052,5.8648544 C4.56850489,5.77460391 4.71934783,5.71443688 4.87019078,5.71443688 L5.29255103,5.71443688 C5.59423692,5.71443688 5.86575423,5.47376885 5.86575423,5.1428503 L5.86575423,4.72168125 C5.86575423,4.54118022 5.92609138,4.39076268 6.04676577,4.27042867 C6.16744011,4.15009466 6.31828305,4.08992764 6.49929459,4.08992764 C6.68030611,4.08992764 6.83114906,4.15009466 6.95182342,4.27042867 C6.95182342,4.27042867 6.95182342,4.27042867 6.981992,4.30051218 C7.07249779,4.42084619 7.13283496,4.57126371 7.13283496,4.72168125 L7.13283496,5.1428503 C7.13283496,5.44368536 7.37418368,5.71443688 7.70603814,5.71443688 L8.12839839,5.71443688 C8.30940993,5.71443688 8.46025287,5.77460391 8.58092724,5.89493792 C8.70160161,6.01527192 8.76193878,6.16568946 8.76193878,6.3461905 C8.76193878,6.52669153 8.70160161,6.67710905 8.58092724,6.79744306 Z" id="Shape"></path>
                        <ellipse id="Oval" cx="17.3599867" cy="4.21026167" rx="1.05590062" ry="1.05292266"></ellipse>
                        <ellipse id="Oval" cx="17.3599867" cy="8.48211931" rx="1.05590062" ry="1.05292266"></ellipse>
                        <ellipse id="Oval" cx="15.2180169" cy="6.3461905" rx="1.05590062" ry="1.05292266"></ellipse>
                        <ellipse id="Oval" cx="19.5019565" cy="6.3461905" rx="1.05590062" ry="1.05292266"></ellipse>
                    </g>
                </g>
            </g>
        </g>
    </g>
</svg>